<?xml version="1.0" encoding="utf-8"?>
<svg id="master-artboard" viewBox="0 0 1112.2459716796875 892.7623291015625" version="1.1" xmlns="http://www.w3.org/2000/svg" x="0px" y="0px" style="enable-background:new 0 0 1400 980;" width="1112.2459716796875px" height="892.7623291015625px"><rect id="ee-background" x="0" y="0" width="1112.2459716796875" height="892.7623291015625" style="fill: white; fill-opacity: 0; pointer-events: none;"/><path d="M 490.7380065917969 312.1273498535156 C 513.6572752933561 347.6507396881668 389.85011794645834 504.38250299492825 301.79449462890625 490.738037109375 C 234.92489634099138 480.3764031583506 216.98651213570014 437.5086800864429 322.460205078125 430.2170715332031 C 419.3790588378906 423.5168762207031 514.8728833948292 535.2159623774893 532.0694580078125 557.1635131835938" style="fill-opacity: 0; stroke: rgb(184, 134, 11); stroke-opacity: 1; stroke-width: 40; paint-order: fill;" transform="matrix(1, 0, 0, 1, -194.70320892333984, -96.60391616821289)"/><path d="M 511.4037780761719 325.4123840332031 C 516.6886931369398 335.98232704434184 530.318007839623 164.14103847325 697.3949584960938 157.1344757080078 C 846.4765453251925 150.88257375292403 832.6128749861737 313.0412256071294 825.8175659179688 393.3139953613281" style="fill: rgb(0, 0, 0); fill-opacity: 0; stroke: rgb(184, 134, 11); stroke-opacity: 1; stroke-width: 40; paint-order: fill;" transform="matrix(1, 0, 0, 1, -194.70320892333984, -96.60391616821289)"/><path d="M 508.45001220703125 533.5439453125 C 510.4976205629867 540.2411982639599 438.8284818732147 608.766480020158 447.9292297363281 769.7228393554688 C 458.4737398175892 956.2139461173098 766.2991919815387 948.3969023929233 899.62109375 914.3822631835938 C 1032.3918579374817 880.5082491202566 1267.5329511248428 757.0704351862105 1256.8414306640625 620.6348876953125 C 1247.2506264441897 498.24549315354375 1147.0762941738776 398.7048936928156 1047.2327270507812 381.5039367675781 C 920.0973780379853 359.60118776874 807.1852937114129 417.68502591628356 774.151123046875 555.6857299804688 C 739.3397348983126 701.1108457018701 808.2428617242715 831.9051626602653 830.2434692382812 836.14794921875" style="fill: rgb(0, 0, 0); fill-opacity: 0; stroke: rgb(184, 134, 11); stroke-opacity: 1; stroke-width: 40; paint-order: fill;" transform="matrix(1, 0, 0, 1, -194.70320892333984, -96.60391616821289)"/><g transform="matrix(0.41847625374794006, 0, 0, 0.41847625374794006, 360.39591217041016, 698.1327514648438)"><g id="g-1" transform="matrix(1, 0, 0, 1, 0, 0)">
	<g id="g-2">
		<path class="st0" d="M652,46c27.6,0,50,22.4,50,50s-22.4,50-50,50s-50-22.4-50-50S624.4,46,652,46z" style="fill: rgb(184, 134, 11); stroke: rgb(184, 134, 11);"/>
	</g>
</g></g><g transform="matrix(0.31639763712882996, 0, 0, 0.31639763712882996, 115.1652603149414, 194.52658081054688)"><g id="g-3" transform="matrix(1, 0, 0, 1, 0, 0)">
	<g id="g-4">
		<path class="st0" d="M652,46c27.6,0,50,22.4,50,50s-22.4,50-50,50s-50-22.4-50-50S624.4,46,652,46z" style="fill: rgb(184, 134, 11); stroke: rgb(184, 134, 11);"/>
	</g>
</g></g><g transform="matrix(0.39755311608314514, 0, 0, 0.39755311608314514, 371.38175201416016, 262.0909423828125)"><g id="g-5" transform="matrix(1, 0, 0, 1, 0, 0)">
	<g id="g-6">
		<path class="st0" d="M652,46c27.6,0,50,22.4,50,50s-22.4,50-50,50s-50-22.4-50-50S624.4,46,652,46z" style="fill: rgb(184, 134, 11); fill-opacity: 1; stroke: rgb(184, 134, 11);"/>
	</g>
</g></g><g transform="matrix(0.24355319142341614, 0, 0, 0.24355319142341614, 154.76956939697266, 417.73004150390625)"><g id="g-7" transform="matrix(1, 0, 0, 1, 0, 0)">
	<g id="g-8">
		<path class="st0" d="M652,46c27.6,0,50,22.4,50,50s-22.4,50-50,50s-50-22.4-50-50S624.4,46,652,46z" style="fill: rgb(184, 134, 11); stroke: rgb(184, 134, 11);"/>
	</g>
</g></g><g transform="matrix(0.3555000126361847, 0, 0, 0.3555000126361847, 64.75748443603516, 190.16403198242188)"><g id="g-9" transform="matrix(1, 0, 0, 1, 0, 0)">
	<g id="g-10">
		<path class="st0" d="M652,46c27.6,0,50,22.4,50,50s-22.4,50-50,50s-50-22.4-50-50S624.4,46,652,46z" style="fill: rgb(184, 134, 11); stroke: rgb(184, 134, 11);"/>
	</g>
</g></g><g transform="matrix(0.3982700705528259, 0, 0, 0.3982700705528259, 79.95397186279297, 424.67547607421875)"><g id="g-13" transform="matrix(1, 0, 0, 1, 0, 0)">
	<g id="g-14">
		<path class="st0" d="M652,46c27.6,0,50,22.4,50,50s-22.4,50-50,50s-50-22.4-50-50S624.4,46,652,46z" style="fill: rgb(184, 134, 11); stroke: rgb(184, 134, 11);"/>
	</g>
</g></g><g transform="matrix(0.4598295986652374, 0, 0, 0.4598295986652374, 123.08856964111328, 274.293212890625)"><g id="g-17" transform="matrix(1, 0, 0, 1, 0, 0)">
	<g id="g-18">
		<path class="st0" d="M652,46c27.6,0,50,22.4,50,50s-22.4,50-50,50s-50-22.4-50-50S624.4,46,652,46z" style="fill: rgb(184, 134, 11); stroke: rgb(184, 134, 11);"/>
	</g>
</g></g></svg>