<?xml version="1.0" encoding="utf-8"?>
<!-- Generator: Adobe Adobe Illustrator 24.2.0, SVG Export Plug-In . SVG Version: 6.00 Build 0)  -->
<svg version="1.1" id="Layer_1" xmlns="http://www.w3.org/2000/svg" xmlns:xlink="http://www.w3.org/1999/xlink" x="0px" y="0px"
	 width="500px" height="500px" viewBox="0 0 500 500" style="enable-background:new 0 0 500 500;" xml:space="preserve">
<style type="text/css">
	.st0{fill:#403A38;}
</style>
<g>
	<g>
		<path class="st0" d="M201.67,160.23c12.87,0,12.89-20,0-20C188.8,140.23,188.78,160.23,201.67,160.23L201.67,160.23z"/>
	</g>
</g>
<g>
	<g>
		<path class="st0" d="M310.68,180.98c8.57-37.2-2.87-80.6-32.73-105.59c-14.46-12.1-32.17-19.11-51.14-19.08
			c-18.64,0.03-37.28,6.48-52.53,17.06c-15.58,10.81-26.1,24.76-35.89,40.72c-7.16,11.68-13.31,19.9-23.67,29.28
			c-12.63,11.45-28.3,20.14-44.26,27.03c-8.24,3.56-18.01,8.2-26.36,8.31c-3.28,0.04-4.95-0.16-6.44-1.29
			c0.06,0.04-0.71-1.13-0.63-0.84c-0.47-1.7-0.28-2.82,0.44-4.39c4.16-9,18.04-5.56,25.41-3.75c9.87,2.42,19.08,6.45,27.68,11.86
			c18.41,11.57,32.14,29,40.77,48.82c0.52-4.04,1.04-8.08,1.56-12.12c-11.14,8.9-20.36,21.39-27.29,33.69
			c-15.51,27.52-19.45,59.76-10.78,90.2c10.05,35.25,34.96,64.41,66.92,81.94c37.02,20.31,80.4,23.48,121.7,19.05
			c39.52-4.24,79.96-12.51,115.47-31.02c34.09-17.77,60.81-45.65,74.97-81.53c13.1-33.19,13.67-73.32-6.99-103.65
			c-20.04-29.42-55.09-46.02-90.37-46.1c-69.92-0.15-130.1,59.78-146.12,125.02c-2.15,8.75-3.48,17.7-4.19,26.67
			c-0.43,5.39,4.9,10,10,10c5.77,0,9.57-4.59,10-10c4.75-59.68,50.81-117.59,110.48-129.76c28.21-5.75,59.74,1.37,81.26,21.07
			c23.5,21.51,29.55,53.52,22.27,83.72c-7.69,31.9-27.56,59.23-54.72,77.43c-29.37,19.68-64.02,28.99-98.51,34.84
			c-38.92,6.61-80.3,8.79-117.94-5.08c-29.09-10.72-54.34-32.01-68.13-59.94c-12.85-26.02-14.34-56.04-3.19-82.5
			c-0.44,1.05,1.02-2.24,1.15-2.52c0.52-1.1,1.05-2.19,1.6-3.28c1.28-2.52,2.66-5,4.11-7.42c1.28-2.13,2.63-4.21,4.03-6.26
			c0.66-0.96,1.34-1.92,2.03-2.86c0.33-0.46,0.67-0.91,1.01-1.36c1.65-2.23-1.25,1.54,0.43-0.56c3.95-4.95,8.22-9.69,12.94-13.92
			c0.66-0.59,1.32-1.18,2.01-1.73c3.72-2.97,3.21-8.34,1.56-12.12c-16.59-38.13-53.78-69.38-96.21-72.45
			c-12.3-0.89-24.73,3.45-31.45,14.29c-5.74,9.25-5.78,22.01,2.06,30.13c15.82,16.39,42.4,3.41,59.12-3.99
			c17.25-7.64,33.67-17.4,47.58-30.23c10.25-9.46,18.7-20.72,25.97-32.58c4.4-7.17,8.51-14.34,14.2-20.6
			c6.44-7.09,13.82-13.07,22.19-17.75c14.81-8.29,32.53-11.99,49-7.82c40.53,10.25,59.01,59.97,50.33,97.65
			C288.51,188.19,307.79,193.53,310.68,180.98L310.68,180.98z"/>
	</g>
</g>
</svg>
